<mxfile host="Electron" modified="2024-04-19T17:38:34.176Z" agent="Mozilla/5.0 (Windows NT 10.0; Win64; x64) AppleWebKit/537.36 (KHTML, like Gecko) draw.io/24.1.0 Chrome/120.0.6099.109 Electron/28.1.0 Safari/537.36" etag="4VYu5GCVakdD3Sq40W1Z" version="24.1.0" type="device">
  <diagram name="Page-1" id="64c3da0e-402f-94eb-ee01-a36477274f13">
    <mxGraphModel dx="474" dy="828" grid="1" gridSize="10" guides="1" tooltips="1" connect="1" arrows="1" fold="1" page="1" pageScale="1" pageWidth="1169" pageHeight="826" background="none" math="0" shadow="0">
      <root>
        <mxCell id="0" />
        <mxCell id="1" parent="0" />
        <mxCell id="2" value="FreeFeast" style="whiteSpace=wrap;rounded=1;shadow=1;fillColor=#10739E;strokeColor=none;fontColor=#FFFFFF;fontStyle=1;fontSize=24" parent="1" vertex="1">
          <mxGeometry x="750" y="50" width="340" height="60" as="geometry" />
        </mxCell>
        <mxCell id="3" value="Proje Planlama" style="whiteSpace=wrap;rounded=1;fillColor=#F2931E;strokeColor=none;shadow=1;fontColor=#FFFFFF;fontStyle=1;fontSize=14" parent="1" vertex="1">
          <mxGeometry x="290" y="169.9999999999998" width="140" height="60" as="geometry" />
        </mxCell>
        <mxCell id="4" value="Sistem Analizi" style="whiteSpace=wrap;rounded=1;fillColor=#F2931E;strokeColor=none;shadow=1;fontColor=#FFFFFF;fontStyle=1;fontSize=14" parent="1" vertex="1">
          <mxGeometry x="530" y="169.9999999999998" width="140" height="60" as="geometry" />
        </mxCell>
        <mxCell id="5" value="Canlıya Geçiş" style="whiteSpace=wrap;rounded=1;fillColor=#F2931E;strokeColor=none;shadow=1;fontColor=#FFFFFF;fontStyle=1;fontSize=14" parent="1" vertex="1">
          <mxGeometry x="1450" y="169.9999999999998" width="140" height="60" as="geometry" />
        </mxCell>
        <mxCell id="6" value="Tasarım" style="whiteSpace=wrap;rounded=1;fillColor=#F2931E;strokeColor=none;shadow=1;fontColor=#FFFFFF;fontStyle=1;fontSize=14" parent="1" vertex="1">
          <mxGeometry x="760" y="169.9999999999998" width="140" height="60" as="geometry" />
        </mxCell>
        <mxCell id="7" value="Geliştirme" style="whiteSpace=wrap;rounded=1;fillColor=#F2931E;strokeColor=none;shadow=1;fontColor=#FFFFFF;fontStyle=1;fontSize=14" parent="1" vertex="1">
          <mxGeometry x="1000" y="169.9999999999998" width="140" height="60" as="geometry" />
        </mxCell>
        <mxCell id="8" value="Test Süreci" style="whiteSpace=wrap;rounded=1;fillColor=#F2931E;strokeColor=none;shadow=1;fontColor=#FFFFFF;fontStyle=1;fontSize=14" parent="1" vertex="1">
          <mxGeometry x="1250" y="169.9999999999998" width="140" height="60" as="geometry" />
        </mxCell>
        <mxCell id="10" value="Proje Beyanı" style="whiteSpace=wrap;rounded=1;fillColor=#12AAB5;strokeColor=none;shadow=1;fontColor=#FFFFFF;" parent="1" vertex="1">
          <mxGeometry x="300" y="260.0000000000001" width="120" height="60" as="geometry" />
        </mxCell>
        <mxCell id="43" value="Veri Toplama ve Kullanıcı Kitlesiyle Görüşmeler" style="whiteSpace=wrap;rounded=1;fillColor=#12AAB5;strokeColor=none;shadow=1;fontColor=#FFFFFF;" parent="1" vertex="1">
          <mxGeometry x="539.9999999999998" y="260.0000000000001" width="120" height="60" as="geometry" />
        </mxCell>
        <mxCell id="103" value="" style="edgeStyle=elbowEdgeStyle;elbow=vertical;rounded=0;fontColor=#000000;endArrow=none;endFill=0;strokeWidth=8;strokeColor=#23445D;" parent="1" source="3" target="10" edge="1">
          <mxGeometry width="100" height="100" relative="1" as="geometry">
            <mxPoint x="150" y="290" as="sourcePoint" />
            <mxPoint x="250" y="190" as="targetPoint" />
          </mxGeometry>
        </mxCell>
        <mxCell id="105" value="" style="edgeStyle=elbowEdgeStyle;elbow=horizontal;rounded=0;fontColor=#000000;endArrow=none;endFill=0;strokeWidth=8;strokeColor=#23445D;" parent="1" source="10" edge="1">
          <mxGeometry width="100" height="100" relative="1" as="geometry">
            <mxPoint x="240" y="440" as="sourcePoint" />
            <mxPoint x="300" y="390" as="targetPoint" />
            <Array as="points">
              <mxPoint x="280" y="330" />
            </Array>
          </mxGeometry>
        </mxCell>
        <mxCell id="106" value="" style="edgeStyle=elbowEdgeStyle;elbow=horizontal;rounded=0;fontColor=#000000;endArrow=none;endFill=0;strokeWidth=8;strokeColor=#23445D;" parent="1" source="10" edge="1">
          <mxGeometry width="100" height="100" relative="1" as="geometry">
            <mxPoint x="310" y="300" as="sourcePoint" />
            <mxPoint x="300" y="470" as="targetPoint" />
            <Array as="points">
              <mxPoint x="280" y="360" />
            </Array>
          </mxGeometry>
        </mxCell>
        <mxCell id="107" value="" style="edgeStyle=elbowEdgeStyle;elbow=horizontal;rounded=0;fontColor=#000000;endArrow=none;endFill=0;strokeWidth=8;strokeColor=#23445D;" parent="1" source="10" edge="1">
          <mxGeometry width="100" height="100" relative="1" as="geometry">
            <mxPoint x="310" y="300" as="sourcePoint" />
            <mxPoint x="300.00000000000045" y="710" as="targetPoint" />
            <Array as="points">
              <mxPoint x="280" y="500" />
            </Array>
          </mxGeometry>
        </mxCell>
        <mxCell id="109" value="" style="edgeStyle=elbowEdgeStyle;elbow=horizontal;rounded=0;fontColor=#000000;endArrow=none;endFill=0;strokeWidth=8;strokeColor=#23445D;" parent="1" source="10" edge="1">
          <mxGeometry width="100" height="100" relative="1" as="geometry">
            <mxPoint x="330" y="320" as="sourcePoint" />
            <mxPoint x="300.00000000000045" y="630" as="targetPoint" />
            <Array as="points">
              <mxPoint x="280" y="370" />
            </Array>
          </mxGeometry>
        </mxCell>
        <mxCell id="110" value="" style="edgeStyle=elbowEdgeStyle;elbow=horizontal;rounded=0;fontColor=#000000;endArrow=none;endFill=0;strokeWidth=8;strokeColor=#23445D;" parent="1" source="10" edge="1">
          <mxGeometry width="100" height="100" relative="1" as="geometry">
            <mxPoint x="340" y="330" as="sourcePoint" />
            <mxPoint x="300" y="550" as="targetPoint" />
            <Array as="points">
              <mxPoint x="280" y="370" />
              <mxPoint x="280" y="400" />
            </Array>
          </mxGeometry>
        </mxCell>
        <mxCell id="116" value="" style="edgeStyle=elbowEdgeStyle;elbow=vertical;rounded=0;fontColor=#000000;endArrow=none;endFill=0;strokeWidth=8;strokeColor=#23445D;" parent="1" source="4" target="43" edge="1">
          <mxGeometry width="100" height="100" relative="1" as="geometry">
            <mxPoint x="240" y="239.99999999999977" as="sourcePoint" />
            <mxPoint x="140" y="310" as="targetPoint" />
          </mxGeometry>
        </mxCell>
        <mxCell id="118" value="" style="edgeStyle=elbowEdgeStyle;elbow=horizontal;rounded=0;fontColor=#000000;endArrow=none;endFill=0;strokeWidth=8;strokeColor=#23445D;" parent="1" source="43" edge="1">
          <mxGeometry width="100" height="100" relative="1" as="geometry">
            <mxPoint x="520" y="290.00000000000045" as="sourcePoint" />
            <mxPoint x="539.9999999999998" y="390" as="targetPoint" />
            <Array as="points">
              <mxPoint x="520" y="340" />
            </Array>
          </mxGeometry>
        </mxCell>
        <mxCell id="119" value="" style="edgeStyle=elbowEdgeStyle;elbow=horizontal;rounded=0;fontColor=#000000;endArrow=none;endFill=0;strokeWidth=8;strokeColor=#23445D;" parent="1" source="43" edge="1">
          <mxGeometry width="100" height="100" relative="1" as="geometry">
            <mxPoint x="530" y="290" as="sourcePoint" />
            <mxPoint x="540" y="470" as="targetPoint" />
            <Array as="points">
              <mxPoint x="520" y="380" />
            </Array>
          </mxGeometry>
        </mxCell>
        <mxCell id="121" value="" style="edgeStyle=elbowEdgeStyle;elbow=horizontal;rounded=0;fontColor=#000000;endArrow=none;endFill=0;strokeWidth=8;strokeColor=#23445D;" parent="1" source="43" edge="1">
          <mxGeometry width="100" height="100" relative="1" as="geometry">
            <mxPoint x="530" y="290" as="sourcePoint" />
            <mxPoint x="540" y="630" as="targetPoint" />
            <Array as="points">
              <mxPoint x="520" y="460" />
            </Array>
          </mxGeometry>
        </mxCell>
        <mxCell id="122" value="" style="edgeStyle=elbowEdgeStyle;elbow=horizontal;rounded=0;fontColor=#000000;endArrow=none;endFill=0;strokeWidth=8;strokeColor=#23445D;" parent="1" source="43" edge="1">
          <mxGeometry width="100" height="100" relative="1" as="geometry">
            <mxPoint x="530" y="290" as="sourcePoint" />
            <mxPoint x="539.9999999999998" y="550" as="targetPoint" />
            <Array as="points">
              <mxPoint x="520" y="430" />
            </Array>
          </mxGeometry>
        </mxCell>
        <mxCell id="133" value="Altyapı Tasarımı" style="whiteSpace=wrap;rounded=1;fillColor=#12AAB5;strokeColor=none;shadow=1;fontColor=#FFFFFF;" parent="1" vertex="1">
          <mxGeometry x="769.9999999999998" y="260.0000000000001" width="120" height="60" as="geometry" />
        </mxCell>
        <mxCell id="145" value="" style="edgeStyle=elbowEdgeStyle;elbow=horizontal;rounded=0;fontColor=#000000;endArrow=none;endFill=0;strokeWidth=8;strokeColor=#23445D;" parent="1" source="133" edge="1">
          <mxGeometry width="100" height="100" relative="1" as="geometry">
            <mxPoint x="750" y="290.00000000000045" as="sourcePoint" />
            <mxPoint x="769.9999999999998" y="390" as="targetPoint" />
            <Array as="points">
              <mxPoint x="750" y="340" />
            </Array>
          </mxGeometry>
        </mxCell>
        <mxCell id="146" value="" style="edgeStyle=elbowEdgeStyle;elbow=horizontal;rounded=0;fontColor=#000000;endArrow=none;endFill=0;strokeWidth=8;strokeColor=#23445D;" parent="1" source="133" edge="1">
          <mxGeometry width="100" height="100" relative="1" as="geometry">
            <mxPoint x="760" y="290" as="sourcePoint" />
            <mxPoint x="770" y="470" as="targetPoint" />
            <Array as="points">
              <mxPoint x="750" y="380" />
            </Array>
          </mxGeometry>
        </mxCell>
        <mxCell id="148" value="" style="edgeStyle=elbowEdgeStyle;elbow=horizontal;rounded=0;fontColor=#000000;endArrow=none;endFill=0;strokeWidth=8;strokeColor=#23445D;" parent="1" source="133" edge="1">
          <mxGeometry width="100" height="100" relative="1" as="geometry">
            <mxPoint x="760" y="290" as="sourcePoint" />
            <mxPoint x="770" y="630" as="targetPoint" />
            <Array as="points">
              <mxPoint x="750" y="460" />
            </Array>
          </mxGeometry>
        </mxCell>
        <mxCell id="149" value="" style="edgeStyle=elbowEdgeStyle;elbow=horizontal;rounded=0;fontColor=#000000;endArrow=none;endFill=0;strokeWidth=8;strokeColor=#23445D;" parent="1" source="133" edge="1">
          <mxGeometry width="100" height="100" relative="1" as="geometry">
            <mxPoint x="760" y="290" as="sourcePoint" />
            <mxPoint x="769.9999999999998" y="550" as="targetPoint" />
            <Array as="points">
              <mxPoint x="750" y="430" />
            </Array>
          </mxGeometry>
        </mxCell>
        <mxCell id="155" value="Kodlama" style="whiteSpace=wrap;rounded=1;fillColor=#12AAB5;strokeColor=none;shadow=1;fontColor=#FFFFFF;" parent="1" vertex="1">
          <mxGeometry x="1009.9999999999998" y="260.0000000000002" width="120" height="60" as="geometry" />
        </mxCell>
        <mxCell id="167" value="" style="edgeStyle=elbowEdgeStyle;elbow=horizontal;rounded=0;fontColor=#000000;endArrow=none;endFill=0;strokeWidth=8;strokeColor=#23445D;" parent="1" source="155" edge="1">
          <mxGeometry width="100" height="100" relative="1" as="geometry">
            <mxPoint x="990" y="290.00000000000057" as="sourcePoint" />
            <mxPoint x="1010" y="380.0000000000002" as="targetPoint" />
            <Array as="points">
              <mxPoint x="990" y="340.0000000000001" />
            </Array>
          </mxGeometry>
        </mxCell>
        <mxCell id="168" value="" style="edgeStyle=elbowEdgeStyle;elbow=horizontal;rounded=0;fontColor=#000000;endArrow=none;endFill=0;strokeWidth=8;strokeColor=#23445D;" parent="1" source="155" edge="1">
          <mxGeometry width="100" height="100" relative="1" as="geometry">
            <mxPoint x="1000" y="290.0000000000001" as="sourcePoint" />
            <mxPoint x="1010" y="460.0000000000002" as="targetPoint" />
            <Array as="points">
              <mxPoint x="990" y="380.0000000000001" />
            </Array>
          </mxGeometry>
        </mxCell>
        <mxCell id="169" value="" style="edgeStyle=elbowEdgeStyle;elbow=horizontal;rounded=0;fontColor=#000000;endArrow=none;endFill=0;strokeWidth=8;strokeColor=#23445D;" parent="1" source="155" edge="1">
          <mxGeometry width="100" height="100" relative="1" as="geometry">
            <mxPoint x="1000" y="290.0000000000001" as="sourcePoint" />
            <mxPoint x="1010" y="700.0000000000002" as="targetPoint" />
            <Array as="points">
              <mxPoint x="990" y="510.0000000000001" />
            </Array>
          </mxGeometry>
        </mxCell>
        <mxCell id="170" value="" style="edgeStyle=elbowEdgeStyle;elbow=horizontal;rounded=0;fontColor=#000000;endArrow=none;endFill=0;strokeWidth=8;strokeColor=#23445D;" parent="1" source="155" edge="1">
          <mxGeometry width="100" height="100" relative="1" as="geometry">
            <mxPoint x="1000" y="290.0000000000001" as="sourcePoint" />
            <mxPoint x="1010" y="620.0000000000002" as="targetPoint" />
            <Array as="points">
              <mxPoint x="990" y="460.0000000000001" />
            </Array>
          </mxGeometry>
        </mxCell>
        <mxCell id="171" value="" style="edgeStyle=elbowEdgeStyle;elbow=horizontal;rounded=0;fontColor=#000000;endArrow=none;endFill=0;strokeWidth=8;strokeColor=#23445D;" parent="1" source="155" edge="1">
          <mxGeometry width="100" height="100" relative="1" as="geometry">
            <mxPoint x="1000" y="290.0000000000001" as="sourcePoint" />
            <mxPoint x="1010" y="540.0000000000002" as="targetPoint" />
            <Array as="points">
              <mxPoint x="990" y="430.0000000000001" />
            </Array>
          </mxGeometry>
        </mxCell>
        <mxCell id="177" value="Bug Testleri" style="whiteSpace=wrap;rounded=1;fillColor=#12AAB5;strokeColor=none;shadow=1;fontColor=#FFFFFF;" parent="1" vertex="1">
          <mxGeometry x="1259.9999999999998" y="259.9999999999999" width="120" height="60" as="geometry" />
        </mxCell>
        <mxCell id="189" value="" style="edgeStyle=elbowEdgeStyle;elbow=horizontal;rounded=0;fontColor=#000000;endArrow=none;endFill=0;strokeWidth=8;strokeColor=#23445D;" parent="1" source="177" edge="1">
          <mxGeometry width="100" height="100" relative="1" as="geometry">
            <mxPoint x="1240" y="290.0000000000002" as="sourcePoint" />
            <mxPoint x="1260" y="390" as="targetPoint" />
            <Array as="points">
              <mxPoint x="1240" y="339.9999999999998" />
            </Array>
          </mxGeometry>
        </mxCell>
        <mxCell id="190" value="" style="edgeStyle=elbowEdgeStyle;elbow=horizontal;rounded=0;fontColor=#000000;endArrow=none;endFill=0;strokeWidth=8;strokeColor=#23445D;" parent="1" source="177" edge="1">
          <mxGeometry width="100" height="100" relative="1" as="geometry">
            <mxPoint x="1250" y="289.9999999999998" as="sourcePoint" />
            <mxPoint x="1260" y="470" as="targetPoint" />
            <Array as="points">
              <mxPoint x="1240" y="379.9999999999998" />
            </Array>
          </mxGeometry>
        </mxCell>
        <mxCell id="193" value="" style="edgeStyle=elbowEdgeStyle;elbow=horizontal;rounded=0;fontColor=#000000;endArrow=none;endFill=0;strokeWidth=8;strokeColor=#23445D;" parent="1" source="177" edge="1">
          <mxGeometry width="100" height="100" relative="1" as="geometry">
            <mxPoint x="1250" y="289.9999999999998" as="sourcePoint" />
            <mxPoint x="1260" y="550" as="targetPoint" />
            <Array as="points">
              <mxPoint x="1240" y="429.9999999999998" />
            </Array>
          </mxGeometry>
        </mxCell>
        <mxCell id="199" value="Mobil Uygulama Beta Sürümü" style="whiteSpace=wrap;rounded=1;fillColor=#12AAB5;strokeColor=none;shadow=1;fontColor=#FFFFFF;" parent="1" vertex="1">
          <mxGeometry x="1459.9999999999998" y="259.9999999999997" width="120" height="60" as="geometry" />
        </mxCell>
        <mxCell id="211" value="" style="edgeStyle=elbowEdgeStyle;elbow=horizontal;rounded=0;fontColor=#000000;endArrow=none;endFill=0;strokeWidth=8;strokeColor=#23445D;" parent="1" source="199" edge="1">
          <mxGeometry width="100" height="100" relative="1" as="geometry">
            <mxPoint x="1440" y="290.00000000000006" as="sourcePoint" />
            <mxPoint x="1460" y="379.9999999999998" as="targetPoint" />
            <Array as="points">
              <mxPoint x="1440" y="339.9999999999996" />
            </Array>
          </mxGeometry>
        </mxCell>
        <mxCell id="212" value="" style="edgeStyle=elbowEdgeStyle;elbow=horizontal;rounded=0;fontColor=#000000;endArrow=none;endFill=0;strokeWidth=8;strokeColor=#23445D;" parent="1" source="199" edge="1">
          <mxGeometry width="100" height="100" relative="1" as="geometry">
            <mxPoint x="1450" y="289.9999999999996" as="sourcePoint" />
            <mxPoint x="1460" y="459.9999999999998" as="targetPoint" />
            <Array as="points">
              <mxPoint x="1440" y="379.9999999999996" />
            </Array>
          </mxGeometry>
        </mxCell>
        <mxCell id="221" value="" style="edgeStyle=elbowEdgeStyle;elbow=vertical;rounded=0;fontColor=#000000;endArrow=none;endFill=0;strokeWidth=8;strokeColor=#23445D;" parent="1" source="6" target="133" edge="1">
          <mxGeometry width="100" height="100" relative="1" as="geometry">
            <mxPoint x="780" y="270" as="sourcePoint" />
            <mxPoint x="880" y="170" as="targetPoint" />
          </mxGeometry>
        </mxCell>
        <mxCell id="223" value="" style="edgeStyle=elbowEdgeStyle;elbow=vertical;rounded=0;fontColor=#000000;endArrow=none;endFill=0;strokeWidth=8;strokeColor=#23445D;" parent="1" source="7" target="155" edge="1">
          <mxGeometry width="100" height="100" relative="1" as="geometry">
            <mxPoint x="1340" y="300" as="sourcePoint" />
            <mxPoint x="1240" y="190" as="targetPoint" />
          </mxGeometry>
        </mxCell>
        <mxCell id="225" value="" style="edgeStyle=elbowEdgeStyle;elbow=vertical;rounded=0;fontColor=#000000;endArrow=none;endFill=0;strokeWidth=8;strokeColor=#23445D;" parent="1" source="8" target="177" edge="1">
          <mxGeometry width="100" height="100" relative="1" as="geometry">
            <mxPoint x="1550" y="290" as="sourcePoint" />
            <mxPoint x="1650" y="190" as="targetPoint" />
          </mxGeometry>
        </mxCell>
        <mxCell id="227" value="" style="edgeStyle=elbowEdgeStyle;elbow=vertical;rounded=0;fontColor=#000000;endArrow=none;endFill=0;strokeWidth=8;strokeColor=#23445D;" parent="1" source="5" target="199" edge="1">
          <mxGeometry width="100" height="100" relative="1" as="geometry">
            <mxPoint x="1450" y="290" as="sourcePoint" />
            <mxPoint x="1550" y="190" as="targetPoint" />
          </mxGeometry>
        </mxCell>
        <mxCell id="229" value="" style="edgeStyle=elbowEdgeStyle;elbow=vertical;rounded=0;fontColor=#000000;endArrow=none;endFill=0;strokeWidth=8;strokeColor=#23445D;" parent="1" source="2" target="3" edge="1">
          <mxGeometry width="100" height="100" relative="1" as="geometry">
            <mxPoint x="540" y="140" as="sourcePoint" />
            <mxPoint x="640" y="40" as="targetPoint" />
          </mxGeometry>
        </mxCell>
        <mxCell id="230" value="" style="edgeStyle=elbowEdgeStyle;elbow=vertical;rounded=0;fontColor=#000000;endArrow=none;endFill=0;strokeWidth=8;strokeColor=#23445D;" parent="1" source="2" target="4" edge="1">
          <mxGeometry width="100" height="100" relative="1" as="geometry">
            <mxPoint x="550" y="150" as="sourcePoint" />
            <mxPoint x="650" y="50" as="targetPoint" />
          </mxGeometry>
        </mxCell>
        <mxCell id="231" value="" style="edgeStyle=elbowEdgeStyle;elbow=vertical;rounded=0;fontColor=#000000;endArrow=none;endFill=0;strokeWidth=8;strokeColor=#23445D;" parent="1" source="2" target="6" edge="1">
          <mxGeometry width="100" height="100" relative="1" as="geometry">
            <mxPoint x="560" y="160" as="sourcePoint" />
            <mxPoint x="660" y="60" as="targetPoint" />
          </mxGeometry>
        </mxCell>
        <mxCell id="232" value="" style="edgeStyle=elbowEdgeStyle;elbow=vertical;rounded=0;fontColor=#000000;endArrow=none;endFill=0;strokeWidth=8;strokeColor=#23445D;" parent="1" source="2" target="7" edge="1">
          <mxGeometry width="100" height="100" relative="1" as="geometry">
            <mxPoint x="570" y="170" as="sourcePoint" />
            <mxPoint x="670" y="70" as="targetPoint" />
          </mxGeometry>
        </mxCell>
        <mxCell id="233" value="" style="edgeStyle=elbowEdgeStyle;elbow=vertical;rounded=0;fontColor=#000000;endArrow=none;endFill=0;strokeWidth=8;strokeColor=#23445D;" parent="1" source="2" target="8" edge="1">
          <mxGeometry width="100" height="100" relative="1" as="geometry">
            <mxPoint x="580" y="180" as="sourcePoint" />
            <mxPoint x="680" y="80" as="targetPoint" />
          </mxGeometry>
        </mxCell>
        <mxCell id="234" value="" style="edgeStyle=elbowEdgeStyle;elbow=vertical;rounded=0;fontColor=#000000;endArrow=none;endFill=0;strokeWidth=8;strokeColor=#23445D;" parent="1" source="2" target="5" edge="1">
          <mxGeometry width="100" height="100" relative="1" as="geometry">
            <mxPoint x="590" y="190" as="sourcePoint" />
            <mxPoint x="690" y="90" as="targetPoint" />
          </mxGeometry>
        </mxCell>
        <mxCell id="6kYsj9so0ANqr6Ve41Mp-234" value="İş Kırılım Yapısı" style="whiteSpace=wrap;rounded=1;fillColor=#12AAB5;strokeColor=none;shadow=1;fontColor=#FFFFFF;" parent="1" vertex="1">
          <mxGeometry x="300" y="353" width="120" height="60" as="geometry" />
        </mxCell>
        <mxCell id="6kYsj9so0ANqr6Ve41Mp-235" value="Yönetişim Planı ve İş Dağılımı" style="whiteSpace=wrap;rounded=1;fillColor=#12AAB5;strokeColor=none;shadow=1;fontColor=#FFFFFF;" parent="1" vertex="1">
          <mxGeometry x="300" y="440.0000000000001" width="120" height="60" as="geometry" />
        </mxCell>
        <mxCell id="6kYsj9so0ANqr6Ve41Mp-236" value="Kabul Kriterlerinin Oluşturulması" style="whiteSpace=wrap;rounded=1;fillColor=#12AAB5;strokeColor=none;shadow=1;fontColor=#FFFFFF;" parent="1" vertex="1">
          <mxGeometry x="300" y="520.0000000000001" width="120" height="60" as="geometry" />
        </mxCell>
        <mxCell id="6kYsj9so0ANqr6Ve41Mp-237" value="Çizelgeleme" style="whiteSpace=wrap;rounded=1;fillColor=#12AAB5;strokeColor=none;shadow=1;fontColor=#FFFFFF;" parent="1" vertex="1">
          <mxGeometry x="300" y="600.0000000000001" width="120" height="60" as="geometry" />
        </mxCell>
        <mxCell id="6kYsj9so0ANqr6Ve41Mp-238" value="Fizibilite ve Risk Analizleri" style="whiteSpace=wrap;rounded=1;fillColor=#12AAB5;strokeColor=none;shadow=1;fontColor=#FFFFFF;" parent="1" vertex="1">
          <mxGeometry x="300" y="680.0000000000001" width="120" height="60" as="geometry" />
        </mxCell>
        <mxCell id="6kYsj9so0ANqr6Ve41Mp-240" value="Gereksinim Beyanları" style="whiteSpace=wrap;rounded=1;fillColor=#12AAB5;strokeColor=none;shadow=1;fontColor=#FFFFFF;" parent="1" vertex="1">
          <mxGeometry x="540" y="353" width="120" height="60" as="geometry" />
        </mxCell>
        <mxCell id="6kYsj9so0ANqr6Ve41Mp-241" value="Use Case&#39;lerin Belirlenmesi" style="whiteSpace=wrap;rounded=1;fillColor=#12AAB5;strokeColor=none;shadow=1;fontColor=#FFFFFF;" parent="1" vertex="1">
          <mxGeometry x="540" y="440.0000000000001" width="120" height="60" as="geometry" />
        </mxCell>
        <mxCell id="6kYsj9so0ANqr6Ve41Mp-242" value="Arayüz Prototiplerin Hazırlanması" style="whiteSpace=wrap;rounded=1;fillColor=#12AAB5;strokeColor=none;shadow=1;fontColor=#FFFFFF;" parent="1" vertex="1">
          <mxGeometry x="540" y="520.0000000000001" width="120" height="60" as="geometry" />
        </mxCell>
        <mxCell id="6kYsj9so0ANqr6Ve41Mp-243" value="Takım İhtiyaçlarının Belirtilmesi" style="whiteSpace=wrap;rounded=1;fillColor=#12AAB5;strokeColor=none;shadow=1;fontColor=#FFFFFF;" parent="1" vertex="1">
          <mxGeometry x="540" y="600.0000000000001" width="120" height="60" as="geometry" />
        </mxCell>
        <mxCell id="6kYsj9so0ANqr6Ve41Mp-245" value="Veri Önişleme / Modelleme" style="whiteSpace=wrap;rounded=1;fillColor=#12AAB5;strokeColor=none;shadow=1;fontColor=#FFFFFF;" parent="1" vertex="1">
          <mxGeometry x="770" y="350.0000000000001" width="120" height="60" as="geometry" />
        </mxCell>
        <mxCell id="6kYsj9so0ANqr6Ve41Mp-246" value="Veri Tabanı Oluşturma" style="whiteSpace=wrap;rounded=1;fillColor=#12AAB5;strokeColor=none;shadow=1;fontColor=#FFFFFF;" parent="1" vertex="1">
          <mxGeometry x="770" y="430.0000000000001" width="120" height="60" as="geometry" />
        </mxCell>
        <mxCell id="6kYsj9so0ANqr6Ve41Mp-247" value="Kullanıcı Yönetim Sistemi Tasarımı (Restoran ve Müşteri)" style="whiteSpace=wrap;rounded=1;fillColor=#12AAB5;strokeColor=none;shadow=1;fontColor=#FFFFFF;" parent="1" vertex="1">
          <mxGeometry x="770" y="510.0000000000001" width="120" height="60" as="geometry" />
        </mxCell>
        <mxCell id="6kYsj9so0ANqr6Ve41Mp-253" value="Platform Performansını Optimize Etme" style="whiteSpace=wrap;rounded=1;fillColor=#12AAB5;strokeColor=none;shadow=1;fontColor=#FFFFFF;" parent="1" vertex="1">
          <mxGeometry x="770" y="600.0000000000001" width="120" height="60" as="geometry" />
        </mxCell>
        <mxCell id="6kYsj9so0ANqr6Ve41Mp-254" value="Arayüz Oluşturma" style="whiteSpace=wrap;rounded=1;fillColor=#12AAB5;strokeColor=none;shadow=1;fontColor=#FFFFFF;" parent="1" vertex="1">
          <mxGeometry x="1009.9999999999998" y="350.0000000000002" width="120" height="60" as="geometry" />
        </mxCell>
        <mxCell id="6kYsj9so0ANqr6Ve41Mp-255" value="Veri Tabanı İmplemantasyonu" style="whiteSpace=wrap;rounded=1;fillColor=#12AAB5;strokeColor=none;shadow=1;fontColor=#FFFFFF;" parent="1" vertex="1">
          <mxGeometry x="1009.9999999999998" y="430.0000000000002" width="120" height="60" as="geometry" />
        </mxCell>
        <mxCell id="6kYsj9so0ANqr6Ve41Mp-256" value="IOS ve Android Integrasyonu" style="whiteSpace=wrap;rounded=1;fillColor=#12AAB5;strokeColor=none;shadow=1;fontColor=#FFFFFF;" parent="1" vertex="1">
          <mxGeometry x="1009.9999999999998" y="510.0000000000002" width="120" height="60" as="geometry" />
        </mxCell>
        <mxCell id="6kYsj9so0ANqr6Ve41Mp-257" value="Sunuculara Optimizasyon" style="whiteSpace=wrap;rounded=1;fillColor=#12AAB5;strokeColor=none;shadow=1;fontColor=#FFFFFF;" parent="1" vertex="1">
          <mxGeometry x="1009.9999999999998" y="590.0000000000002" width="120" height="60" as="geometry" />
        </mxCell>
        <mxCell id="6kYsj9so0ANqr6Ve41Mp-258" value="Ek Güvenlik Sistemlerinin Aktive Edilmesi" style="whiteSpace=wrap;rounded=1;fillColor=#12AAB5;strokeColor=none;shadow=1;fontColor=#FFFFFF;" parent="1" vertex="1">
          <mxGeometry x="1009.9999999999998" y="670.0000000000002" width="120" height="60" as="geometry" />
        </mxCell>
        <mxCell id="6kYsj9so0ANqr6Ve41Mp-259" value="Arayüz Testleri" style="whiteSpace=wrap;rounded=1;fillColor=#12AAB5;strokeColor=none;shadow=1;fontColor=#FFFFFF;" parent="1" vertex="1">
          <mxGeometry x="1259.9999999999998" y="350.0000000000002" width="120" height="60" as="geometry" />
        </mxCell>
        <mxCell id="6kYsj9so0ANqr6Ve41Mp-260" value="Kabul Kriterleri Testi" style="whiteSpace=wrap;rounded=1;fillColor=#12AAB5;strokeColor=none;shadow=1;fontColor=#FFFFFF;" parent="1" vertex="1">
          <mxGeometry x="1259.9999999999998" y="430.0000000000002" width="120" height="60" as="geometry" />
        </mxCell>
        <mxCell id="6kYsj9so0ANqr6Ve41Mp-261" value="Bakım Süreci" style="whiteSpace=wrap;rounded=1;fillColor=#12AAB5;strokeColor=none;shadow=1;fontColor=#FFFFFF;" parent="1" vertex="1">
          <mxGeometry x="1259.9999999999998" y="510.0000000000002" width="120" height="60" as="geometry" />
        </mxCell>
        <mxCell id="6kYsj9so0ANqr6Ve41Mp-262" value="Dökümantasyon" style="whiteSpace=wrap;rounded=1;fillColor=#12AAB5;strokeColor=none;shadow=1;fontColor=#FFFFFF;" parent="1" vertex="1">
          <mxGeometry x="1459.9999999999998" y="510.0000000000002" width="120" height="60" as="geometry" />
        </mxCell>
        <mxCell id="6kYsj9so0ANqr6Ve41Mp-264" value="Uygulama Mağazalarından Onay Alınması ve Yasal Olarak Çıkışa Hazır olunması" style="whiteSpace=wrap;rounded=1;fillColor=#12AAB5;strokeColor=none;shadow=1;fontColor=#FFFFFF;" parent="1" vertex="1">
          <mxGeometry x="1460" y="340" width="140" height="70" as="geometry" />
        </mxCell>
        <mxCell id="6kYsj9so0ANqr6Ve41Mp-265" value="Sunucuların Aktivasyonu ve Uygulamanın Yayınlanması" style="whiteSpace=wrap;rounded=1;fillColor=#12AAB5;strokeColor=none;shadow=1;fontColor=#FFFFFF;" parent="1" vertex="1">
          <mxGeometry x="1459.9999999999998" y="430.0000000000002" width="120" height="60" as="geometry" />
        </mxCell>
        <mxCell id="tFB7nEEr1jrOijAsHret-234" value="" style="edgeStyle=elbowEdgeStyle;elbow=horizontal;rounded=0;fontColor=#000000;endArrow=none;endFill=0;strokeWidth=8;strokeColor=#23445D;" parent="1" target="6kYsj9so0ANqr6Ve41Mp-262" edge="1">
          <mxGeometry width="100" height="100" relative="1" as="geometry">
            <mxPoint x="1460" y="290" as="sourcePoint" />
            <mxPoint x="1440" y="580" as="targetPoint" />
            <Array as="points">
              <mxPoint x="1440" y="459.9999999999998" />
            </Array>
          </mxGeometry>
        </mxCell>
      </root>
    </mxGraphModel>
  </diagram>
</mxfile>
